<?xml version="1.0" encoding="UTF-8"?>
<!DOCTYPE svg PUBLIC "-//W3C//DTD SVG 1.1//EN" "http://www.w3.org/Graphics/SVG/1.1/DTD/svg11.dtd">
<!-- Creator: CorelDRAW 2018 (64-Bit) -->
<svg xmlns="http://www.w3.org/2000/svg" xml:space="preserve" width="116.692mm" height="14.0628mm" version="1.1" style="shape-rendering:geometricPrecision; text-rendering:geometricPrecision; image-rendering:optimizeQuality; fill-rule:evenodd; clip-rule:evenodd"
viewBox="0 0 11669.24 1406.28"
 xmlns:xlink="http://www.w3.org/1999/xlink">
 <defs>
  <style type="text/css">
   <![CDATA[
    .fil0 {fill:#61BF1A;fill-rule:nonzero}
   ]]>
  </style>
 </defs>
 <g id="Слой_x0020_1">
  <metadata id="CorelCorpID_0Corel-Layer"/>
  <path class="fil0" d="M588.87 35.05c217.38,0 392.24,62.21 525.63,186.03 132.88,124.38 199.32,285.42 199.32,483.64 0,200.39 -65.38,360.36 -195.59,480.47 -130.22,119.59 -306.68,179.64 -529.36,179.64l-588.87 0 0 -1329.78 588.87 0zm3.2 191.36l-384.81 0 0 947.09 384.81 0c157.84,0 282.22,-42.52 372.55,-127.02 90.36,-84.52 135.55,-199.85 135.55,-344.93 0,-140.31 -46.78,-254.59 -140.32,-342.82 -93.55,-88.21 -215.78,-132.32 -367.78,-132.32zm2392.72 985.35c177.53,0 322.61,-47.82 434.76,-144.02 112.13,-95.69 167.94,-217.91 167.94,-366.19 0,-147.24 -56.35,-268.93 -169.01,-365.66 -112.68,-96.22 -257.23,-144.57 -433.69,-144.57 -176.44,0 -320.48,47.82 -432.1,144.04 -111.59,95.67 -167.4,217.89 -167.4,366.19 0,148.28 55.81,270.5 167.4,366.19 111.62,96.2 255.66,144.02 432.1,144.02zm0 194.52c-236.51,0 -431.56,-66.97 -584.1,-200.89 -152.52,-133.41 -229.05,-301.35 -229.05,-503.84 0,-203.05 76,-370.98 227.98,-503.33 152.54,-132.32 347.6,-198.22 585.17,-198.22 239.7,0 435.82,65.9 588.36,197.69 151.98,131.81 227.99,299.77 227.99,503.86 0,203.56 -76.54,371.49 -229.05,504.9 -152.54,133.39 -348.13,199.83 -587.3,199.83zm1798.02 -41.45l0 -1329.78 207.28 0 0 1138.45 988.54 0 0 191.33 -1195.82 0zm2079.17 0l0 -1332.95 210.45 0 0 1332.95 -210.45 0zm1316.5 0l0 -1329.78 108.96 0 844.5 934.36 0 -934.36 204.09 0 0 1329.78 -108.96 0 -844.5 -931.17 0 931.17 -204.09 0zm2483.62 -513.4l519.79 0 -258.3 -509.7 -261.49 509.7zm-482.05 513.4l676.57 -1329.78 130.75 0 681.87 1329.78 -222.68 0 -172.73 -338.03 -702.09 0 -171.67 338.03 -220.02 0z"/>
 </g>
</svg>
