<svg id="Слой_1" data-name="Слой 1" xmlns="http://www.w3.org/2000/svg" viewBox="0 0 142 224"><defs><style>.cls-1{fill:#f93;}</style></defs><title>person1</title><path class="cls-1" d="M88.56,107.28a68.81,68.81,0,0,1,35.9,23.39,67.73,67.73,0,0,1,15,42.83V214a8,8,0,0,1-8,8H10.5a8,8,0,0,1-8-8V173.5a68.35,68.35,0,0,1,50-66L63.8,144.79a7,7,0,0,0,13.4,0l11.36-37.51m-1.36-2.4L75.28,144.21a5,5,0,0,1-9.57,0L53.86,105.1A70.51,70.51,0,0,0,.5,173.5V214a10,10,0,0,0,10,10h121a10,10,0,0,0,10-10V173.5a70.51,70.51,0,0,0-54.3-68.62Z"/><path class="cls-1" d="M71,105a68.58,68.58,0,0,1,68.5,68.5V214a8,8,0,0,1-8,8H10.5a8,8,0,0,1-8-8V173.5A68.58,68.58,0,0,1,71,105m0-2h0A70.49,70.49,0,0,0,.5,173.5V214a10,10,0,0,0,10,10h121a10,10,0,0,0,10-10V173.5A70.49,70.49,0,0,0,71,103Z"/><path class="cls-1" d="M71,2A43.5,43.5,0,1,1,27.5,45.5,43.54,43.54,0,0,1,71,2m0-2a45.5,45.5,0,1,0,45.5,45.5A45.5,45.5,0,0,0,71,0Z"/><path class="cls-1" d="M71,176a2,2,0,1,1-2,2,2,2,0,0,1,2-2m0-2a4,4,0,1,0,4,4,4,4,0,0,0-4-4Z"/><path class="cls-1" d="M71,199a2,2,0,1,1-2,2,2,2,0,0,1,2-2m0-2a4,4,0,1,0,4,4,4,4,0,0,0-4-4Z"/></svg>